<?xml version="1.0" encoding="utf-8"?>
<!-- Generator: Adobe Illustrator 23.0.0, SVG Export Plug-In . SVG Version: 6.00 Build 0)  -->
<svg version="1.1" id="Capa_1" xmlns="http://www.w3.org/2000/svg" xmlns:xlink="http://www.w3.org/1999/xlink" x="0px" y="0px"
	 viewBox="0 0 600 600" style="enable-background:new 0 0 600 600;" xml:space="preserve">
<style type="text/css">
	.st0{fill:#09090C;}
	.st1{fill:#FFFFFF;}
</style>
<path class="st0" d="M600.74,300.6c0,165.69-134.31,300-300,300s-300-134.31-300-300s134.31-300,300-300S600.74,134.91,600.74,300.6
	"/>
<g>
	<path class="st1" d="M216,407.9c3.46-22.33,15.01-32.73,28.89-27.73l4.04-31.97c-10.4,0-19.64,5.02-26.96,14.64h-0.38l1.74-12.9
		h-28.89l-11.56,94.17h28.89L216,407.9z"/>
	<path class="st1" d="M341.46,305.85c0.33-0.65,0.74-1.2,1.05-1.88c1.94-4.25,3.47-9.24,4.56-14.83l13.68-69.04l4.6-0.02l-0.01,0.06
		h13.99l6.01-24.44h-7.57c-0.01,0-0.04-0.01-0.04-0.01l-2.29,0.01h-7.88l0,0.03l-2.03,0.01l0.81-4.34c0.52-2.52,1.12-4.73,1.79-6.57
		c0.61-1.63,1.35-2.97,2.19-3.96c0.76-0.87,1.67-1.48,2.71-1.87c0.03-0.02,0.07-0.03,0.11-0.04c1.13-0.42,2.56-0.64,4.24-0.64
		l0.32,0.01c0.52,0.02,0.88,0.08,1.3,0.11c2.53,0.38,5.7,1.42,9.72,3.91l8.97-22.65c0,0-4.45-2.83-11.78-4.46
		c-0.24-0.05-0.41-0.13-0.66-0.18c-0.22-0.05-0.53-0.07-0.76-0.11c-1.05-0.2-2.12-0.35-3.27-0.48c-0.24-0.03-0.42-0.08-0.67-0.1
		c-0.2-0.02-0.41,0.02-0.61,0c-2.32-0.2-4.82-0.2-7.5,0.01c-2.35,0.15-4.48,0.55-6.64,1.03c-1.15,0.25-2.25,0.39-3.45,0.74
		l0.01,0.02c-0.34,0.11-0.76,0.12-1.09,0.24c-4.19,1.5-7.88,3.79-10.96,6.77c-3.06,2.94-5.63,6.61-7.62,10.93
		c-1.95,4.21-3.49,9.14-4.58,14.68l-1.35,7.02l-25.91,0.09l0.6-3.05c0.46-2.52,1.03-4.7,1.73-6.51c0.62-1.63,1.38-2.98,2.24-3.98
		c0.77-0.9,1.71-1.55,2.81-1.97c1.19-0.48,2.6-0.71,4.48-0.7c0.82,0,1.64,0.09,2.44,0.23c0.84,0.16,1.56,0.33,2.19,0.5
		c1.94,0.63,4.12,1.57,6.67,3.16l8.98-22.65c0,0-14.56-9.67-35.34-3.56l0.05,0.14c-0.4,0.13-0.9,0.14-1.28,0.29
		c-4.11,1.49-7.8,3.73-10.94,6.68c-3.08,2.89-5.69,6.54-7.75,10.85c-1.98,4.24-3.54,9.17-4.61,14.64l-1.16,6h-13.99l-6.01,24.21
		h6.93c0.3,0.05,0.56,0.19,0.89,0.19l7.36-0.03l-13.47,68.1c-0.51,2.5-1.12,4.73-1.8,6.6c-0.59,1.61-1.33,2.94-2.18,3.95
		c-0.72,0.82-1.61,1.41-2.59,1.83c-0.15,0.06-0.32,0.12-0.49,0.18c-1.3,0.46-2.56,0.61-3.84,0.6c-0.41,0-0.87-0.04-1.32-0.07
		c-0.84-0.05-1.6-0.13-2.22-0.27c-2.3-0.41-4.99-1.18-8.29-2.65l-5.98,24.51c0,0,13.18,4.22,26.64,2.16
		c0.46-0.07,0.91-0.15,1.36-0.24c1.64-0.31,3.25-0.71,4.86-1.24c0.32-0.11,0.7-0.14,1.01-0.26c0.61-0.22,1.13-0.57,1.72-0.82
		c1.22-0.52,2.43-1.03,3.59-1.72c2.03-1.2,3.94-2.57,5.65-4.21c1.02-1.01,1.81-1.97,2.43-2.88c1.98-2.42,3.78-5.08,5.2-8.23
		c1.95-4.3,3.51-9.36,4.65-15.06l13.87-70.36l25.93-0.09l-13.1,66.8c-0.54,2.57-1.15,4.77-1.84,6.54c-0.58,1.52-1.29,2.73-2.07,3.69
		c-0.14,0.15-0.23,0.3-0.39,0.46c-0.58,0.63-1.29,1.07-2.05,1.44c-0.55,0.27-1.21,0.47-1.91,0.64c-0.3,0.07-0.58,0.13-0.91,0.18
		c-2.95,0.42-7.27,0.34-13.07-2.85l-8.86,24.61c0,0,6.05,1.68,13.87,2.44c0.6,0.05,1.23,0.09,1.85,0.13
		c0.92,0.07,1.87,0.1,2.83,0.14c3,0.08,6.15-0.01,9.31-0.44c0.37-0.05,0.73-0.09,1.11-0.13c0.77-0.12,1.51-0.29,2.26-0.45
		c0.58-0.16,1.17-0.31,1.76-0.46c0.61-0.17,1.22-0.34,1.85-0.49c1.66-0.56,3.29-1.16,4.76-2.02c3.26-1.91,5.83-3.8,7.98-5.69
		C337.65,312.25,339.71,309.23,341.46,305.85"/>
	<path class="st1" d="M299.01,95.85c75.23,0,140.96,41.21,175.95,102.21c5.75-5.29,12.47-9.35,19.93-12.05
		C455.81,118.28,382.68,72.55,299.01,72.55c-63.59,0-121.09,26.43-162.2,68.84c7.08,1.62,14.98,4.72,22.71,10.28
		C195.9,117.12,245,95.85,299.01,95.85"/>
	<path class="st1" d="M519.4,349.94h-29.85c-3.85,15.41-11.17,29.28-26.77,40.26l-0.38-0.2l10.78-87.61H444.5l-17.52,141.73h28.3
		l2.89-25.04c4.04-1.72,7.7-3.66,11.36-5.96l1.73,5.77c5.2,15.8,12.14,26.96,26.77,26.96c4.62,0,6.54-0.19,8.48-0.39l6.55-23.49
		c-8.48-0.58-13.48-2.89-17.72-16.38l-2.69-8.08C505.92,384.99,515.75,369.01,519.4,349.94"/>
	<path class="st1" d="M428.77,455.76h-1.53h-0.32c-34.92,28.47-79.44,45.58-127.91,45.58c-48.46,0-92.99-17.11-127.91-45.58h-1.13
		l0.1-0.81c-2.66-2.2-5.25-4.47-7.79-6.79c-6.88,3.48-15.41,6-26.06,7.03c41.15,42.76,98.89,69.45,162.78,69.45
		c63.61,0,121.12-26.45,162.24-68.88h-5.71H428.77z"/>
	<path class="st1" d="M156.85,268.05l-21.57-20.03c-7.32,8.66-17.91,13.87-28.12,13.87c-15.79,0-25.41-10.4-25.41-29.09
		c0-25.6,14.63-51.99,38.32-51.99c10.4,0,18.68,6.74,24.65,17.53l24.46-18.49c-12.71-21.38-31.2-28.51-47.37-28.51
		c-43.91,0-72.6,37.18-72.6,82.61c0,38.13,24.07,57.59,55.85,57.59C125.84,291.54,144.13,282.88,156.85,268.05"/>
	<path class="st1" d="M255.23,234.16c0-25.62-15.98-40.25-40.25-40.25c-33.12,0-51.99,26.96-51.99,57.19
		c0,25.8,15.98,40.44,39.86,40.44C238.87,291.54,255.23,264.77,255.23,234.16 M192.26,249.57c0-14.45,7.71-29.86,20.42-29.86
		c5.2,0,13.29,2.89,13.29,16.37c0,15.41-8.28,29.65-20.99,29.65C198.81,265.74,192.26,260.73,192.26,249.57"/>
	<path class="st1" d="M290.53,421.96c-5.59,0-11.75-3.47-13.48-11.93c27.73-2.89,55.26-11.95,55.65-35.81
		c0.19-17.72-16.95-26.01-32.16-26.01c-31.77,0-51.61,26.2-51.61,58.16c-0.19,24.45,15.6,39.48,39.29,39.48
		c18.49,0,31.01-6.93,41.02-20.61l-21.57-12.7C302.47,419.46,296.88,421.96,290.53,421.96 M298.04,372.28
		c4.43,0,7.12,2.13,6.93,5.97c-0.19,9.24-12.9,12.9-26.96,14.45C281.29,379.6,289.76,372.28,298.04,372.28"/>
	<path class="st1" d="M158.19,370.93v-0.38c13.67-6.94,20.99-21.77,20.99-34.86c0-19.07-12.14-28.31-36.2-28.31H94.83L78.08,444.11
		h46.6c37.17,0,52.76-16.94,52.76-44.48C177.44,384.99,169.93,375.56,158.19,370.93 M126.22,417.35h-14.64l3.85-31.01h16.18
		c10.01,0,14.63,4.05,14.63,11.17C146.25,409.06,140.28,417.35,126.22,417.35 M130.07,362.45h-11.93l3.66-27.92h13.47
		c8.48,0,12.71,2.89,12.71,9.82C147.98,355.15,140.66,362.45,130.07,362.45"/>
	<path class="st1" d="M400.68,349.94l-0.77,6.55h-0.58c-5-5.21-12.32-8.29-22.15-8.29c-24.65,0-44.48,25.62-44.48,59.12
		c0,21.77,10.4,38.52,30.61,38.52c10.59,0,20.03-5.79,26.96-15.79l0.58,0.19l-1.74,13.87h29.08l11.56-94.17H400.68z M397.4,383.46
		c-3.28,23.68-14.83,36.77-24.84,36.77c-6.55,0-10.78-5.96-10.78-15.02c0-14.06,7.7-31.2,20.42-31.2c5.97,0,11.35,2.32,15.59,6.74
		L397.4,383.46z"/>
	<path class="st1" d="M422.36,267.66c-5.59,0-11.75-3.47-13.48-11.93c27.73-2.89,55.26-11.95,55.65-35.81
		c0.2-17.72-16.95-26.01-32.16-26.01c-31.77,0-51.61,26.2-51.61,58.16c-0.19,24.45,15.6,39.48,39.29,39.48
		c18.49,0,31.01-6.93,41.02-20.61l-21.57-12.7C434.29,265.16,428.71,267.66,422.36,267.66 M429.86,217.97
		c4.43,0,7.12,2.13,6.93,5.97c-0.19,9.24-12.9,12.9-26.96,14.45C413.11,225.29,421.58,217.97,429.86,217.97"/>
	<path class="st1" d="M506.11,267.66c-5.58,0-11.75-3.47-13.47-11.93c27.73-2.89,55.26-11.95,55.65-35.81
		c0.2-17.72-16.95-26.01-32.15-26.01c-31.77,0-51.6,26.2-51.6,58.16c-0.2,24.45,15.59,39.48,39.28,39.48
		c18.49,0,31.01-6.93,41.01-20.61l-21.57-12.7C518.05,265.16,512.47,267.66,506.11,267.66 M513.63,217.97
		c4.43,0,7.12,2.13,6.93,5.97c-0.19,9.24-12.9,12.9-26.96,14.45C496.87,225.29,505.34,217.97,513.63,217.97"/>
	<path class="st1" d="M537.28,349.56c-6.8,0-12.33,5.63-12.33,12.64c0,7.01,5.53,12.71,12.33,12.71c6.94,0,12.47-5.7,12.47-12.71
		C549.75,355.19,544.22,349.56,537.28,349.56 M537.28,371.37c-4.77,0-8.45-4.05-8.45-9.17c0-5.08,3.67-9.1,8.45-9.1
		c4.88,0,8.62,4.02,8.62,9.1C545.9,367.31,542.16,371.37,537.28,371.37"/>
	<path class="st1" d="M540.61,363.23v-0.07c0.58-0.17,1.99-1.13,1.99-3.06c0-2.41-1.61-3.95-4.19-3.95h-5.6v11.92h3.71v-4.05h0.96
		l1.68,4.05h4.05l-2.16-4.16C540.75,363.33,540.61,363.23,540.61,363.23 M537.45,361.54h-0.93v-2.85h1c0.82,0,1.3,0.44,1.3,1.41
		C538.83,361.03,538.35,361.54,537.45,361.54"/>
</g>
</svg>
